<?xml version="1.0" encoding="UTF-8" standalone="no"?> <svg width="64" height="64" viewBox="0 0 64 64" fill="none" xmlns="http://www.w3.org/2000/svg">
<path d="M24.63 51.5H39.37C39.9004 51.5 40.4091 51.2893 40.7842 50.9142C41.1593 50.5391 41.37 50.0304 41.37 49.5C41.37 48.9696 41.1593 48.4609 40.7842 48.0858C40.4091 47.7107 39.9004 47.5 39.37 47.5H24.63C24.0996 47.5 23.5909 47.7107 23.2158 48.0858C22.8407 48.4609 22.63 48.9696 22.63 49.5C22.63 50.0304 22.8407 50.5391 23.2158 50.9142C23.5909 51.2893 24.0996 51.5 24.63 51.5V51.5Z" fill="url(#paint0_linear)"/>
<path d="M32 2C21 2 12 11.4 12 23C12 34.2 29.91 50.31 30.67 51C31.0363 51.3261 31.5096 51.5063 32 51.5063C32.4904 51.5063 32.9637 51.3261 33.33 51C34.09 50.31 52 34.2 52 23C52 11.4 43 2 32 2Z" fill="url(#paint1_linear)"/>
<path d="M32 12.47C30.1468 12.47 28.3352 13.0195 26.7943 14.0491C25.2534 15.0787 24.0525 16.5421 23.3433 18.2542C22.6341 19.9664 22.4485 21.8504 22.8101 23.668C23.1716 25.4856 24.064 27.1551 25.3744 28.4656C26.6848 29.776 28.3544 30.6684 30.172 31.0299C31.9896 31.3915 33.8736 31.2059 35.5858 30.4967C37.2979 29.7875 38.7613 28.5866 39.7909 27.0457C40.8205 25.5048 41.37 23.6932 41.37 21.84C41.3674 19.3557 40.3793 16.9739 38.6227 15.2173C36.866 13.4607 34.4843 12.4726 32 12.47V12.47Z" fill="url(#paint2_linear)"/>
<path d="M51.09 38.3901C50.663 38.0745 50.1281 37.9414 49.603 38.0202C49.0779 38.099 48.6056 38.3831 48.29 38.8101C47.9744 39.2371 47.8413 39.772 47.9201 40.2971C47.9989 40.8222 48.283 41.2945 48.71 41.6101C50.38 42.8501 52.38 44.8701 52.38 47.5001C52.37 53.1901 43 58.0001 32 58.0001C21 58.0001 11.63 53.1901 11.63 47.5001C11.63 44.8701 13.63 42.8501 15.3 41.6101C15.5114 41.4538 15.69 41.2574 15.8255 41.0322C15.9611 40.8069 16.0509 40.5571 16.0899 40.2971C16.1289 40.0371 16.1163 39.7719 16.0528 39.5168C15.9894 39.2617 15.8763 39.0215 15.72 38.8101C15.5637 38.5987 15.3673 38.4201 15.1421 38.2846C14.9168 38.149 14.667 38.0592 14.407 38.0202C14.147 37.9812 13.8818 37.9938 13.6267 38.0573C13.3716 38.1207 13.1314 38.2338 12.92 38.3901C9.46 40.9501 7.63 44.0901 7.63 47.4901C7.63 55.6301 18.33 62.0001 32 62.0001C45.67 62.0001 56.37 55.6301 56.37 47.5001C56.37 44.1001 54.54 40.9501 51.09 38.3901Z" fill="url(#paint3_linear)"/>
<defs>
<linearGradient id="paint0_linear" x1="22.63" y1="49.5" x2="41.37" y2="49.5" gradientUnits="userSpaceOnUse">
<stop stop-color="#0C90F2"/>
<stop offset="0.14" stop-color="#1092F2"/>
<stop offset="0.27" stop-color="#1C97F1"/>
<stop offset="0.4" stop-color="#2F9FF1"/>
<stop offset="0.53" stop-color="#4BABF0"/>
<stop offset="0.66" stop-color="#6EBBEE"/>
<stop offset="0.78" stop-color="#99CEED"/>
<stop offset="0.85" stop-color="#B3D9EC"/>
</linearGradient>
<linearGradient id="paint1_linear" x1="11.99" y1="26.75" x2="52.01" y2="26.75" gradientUnits="userSpaceOnUse">
<stop stop-color="#2357FF"/>
<stop offset="0.38" stop-color="#1B6FF6"/>
<stop offset="1" stop-color="#0B9EE3"/>
</linearGradient>
<linearGradient id="paint2_linear" x1="446.716" y1="421.752" x2="797.904" y2="421.752" gradientUnits="userSpaceOnUse">
<stop stop-color="#0C90F2"/>
<stop offset="0.14" stop-color="#1092F2"/>
<stop offset="0.27" stop-color="#1C97F1"/>
<stop offset="0.4" stop-color="#2F9FF1"/>
<stop offset="0.53" stop-color="#4BABF0"/>
<stop offset="0.66" stop-color="#6EBBEE"/>
<stop offset="0.78" stop-color="#99CEED"/>
<stop offset="0.85" stop-color="#B3D9EC"/>
</linearGradient>
<linearGradient id="paint3_linear" x1="379.516" y1="1238.1" x2="2755.1" y2="1238.1" gradientUnits="userSpaceOnUse">
<stop stop-color="#0C90F2"/>
<stop offset="0.14" stop-color="#1092F2"/>
<stop offset="0.27" stop-color="#1C97F1"/>
<stop offset="0.4" stop-color="#2F9FF1"/>
<stop offset="0.53" stop-color="#4BABF0"/>
<stop offset="0.66" stop-color="#6EBBEE"/>
<stop offset="0.78" stop-color="#99CEED"/>
<stop offset="0.85" stop-color="#B3D9EC"/>
</linearGradient>
</defs>
</svg>
